**ABCDEFGHIJKLMNOPQRSTUVWXYZabcdefghijklmnopqrstuvwxyz**************************
**PARASOLID !"#$%&'()*+,-./:;<=>?@[\]^_`{|}~0123456789**************************
**PART1;
MC=AMD64;
MC_MODEL=Intel64 Family 6 Model 126 Stepping 5, GenuineIntel;
MC_ID=unknown;
OS=Windows_NT;
OS_RELEASE=unknown;
FRU=Parasolid Version 34.1, build 254,  2-10-2023;
APPL=SOLIDWORKS 2023-2023138;
SITE=;
USER=unknown;
FORMAT=text;
GUISE=transmit;
KEY=AirFoil;
FILE=AirFoil.x_t;
DATE=Wed May 15 18:42:29 2024;
**PART2;
SCH=SCH_3401254_34101;
USFLD_SIZE=0;
**PART3;
**END_OF_HEADER*****************************************************************
T51 : TRANSMIT FILE created by modeller version 340125423 SCH_3401254_34101_1300
6231 0 12 36 CCCI7 lattice222 0 CCCI4 mesh1006 0 I8 polyline1008 0 CCCCCCCDI5 ow
ner1040 0 CCCI16 boundary_lattice222 0 CCCI13 boundary_mesh1006 0 I17 boundary_p
olyline1008 0 CCCA16 index_map_offset0 0 1 dA9 index_map82 0 A17 node_id_index_m
ap82 0 A20 schema_embedding_map82 0 A5 child12 0 A14 lowest_node_id0 0 1 dA16 me
sh_offset_data206 0 Z1 105 2 3 0 0 0 0 0 0 0 1e3 1e-8 0 4 0 1 0 1 1 5 0 6 7 0 0
 0 8 9 0 0 0 0 0 0 0 0 81 255 2 2 99 10 1 11 0 0 0 0 12 70 11 CI9 list_type0 0 1
 uI10 notransmit0 0 1 lCCCDCCDI12 finger_index0 0 1 dI12 finger_block1012 0 CZ3
 0 4 T1 0 0 11 20 1 13 13 13 255 5 31 0 1 0 14 0 0 15 0 67 255 6 30 0 14 16 0 0
 +17 0 0 -1 .000760526201159414 134 255 7 25 0 18 17 0 0 +19 20 19 9 CCCCCCI5 fr
ame230 0 CA5 owner12 0 Z8 9 0 1 15 0 21 0 V0 16 255 9 5 0 ?22 0 18 17 0 0 1 17 2
55 22 0 23 22 22 0 24 9 0 0 +16 18 20 0 ?25 9 0 7 0 0 1 134 17 7 0 9 0 7 26 +27
 28 141 255 26 6 26 26 17 136 255 27 3 71 3 75 2 TTF1 29 30 31 135 255 28 2 0 45
 255 213 29 .072272359976454 -682570335048732e-19 .1 .0734154463947309 268568610
167849e-19 .1 .0722723599764539 .0001219707555373618 .1 .0713354828776833 .00028
0581867658345 .1 .0690597403990146 .000523745586237919 .1 .0662636666873828 .000
825580781680082 .1 .0626204016385943 .001179781822923696 .1 .0583430080130119 .0
0157066586648824 .1 .0534502004712932 .00199068467417343 .1 .0480443640452903 .0
02427547609387015 .1 .0422116857727235 .00286380494436679 .1 .0360538672328683 .
003286530092537165 .1 .0296758271163602 .00367627135283716 .1 .0231867720356223
 .004016523833901815 .1 .01669749908042965 .0042870613666994 .1 .011339284110728
06 .004443346384134145 .1 .00713606941855702 .00451514262370983 .1 .004078240645
60424 .00454062277781031 .1 .001102018645893664 .00453706351141302 .1 -.00177986
710332078 .00449875155075596 .1 -.00455485139565114 .00443150133386039 .1 -.0072
1082184758776 .004329938945004145 .1 -.00973661592137333 .004197762505470745 .1
 -.01212175188375194 .00403189086365417 .1 -.01435611618709956 .0038351307109849
3 .1 -.01642941883151055 .00360575928628965 .1 -.0183330179003363 .0033481493385
01245 .1 -.0200594702318735 .003068941855528095 .1 -.0216015856480624 .002769387
39939077 .1 -.0229543545251057 .002450524099109885 .1 -.024111370696318 .0021016
13590616065 .1 -.0250701228256049 .001716193365936225 .1 -.02582183842498295 .00
1290935181570104 .1 -.02636241364658795 .000846871786677417 .1 -.026700006639594
65 .0004398700528182815 .1 -.02686288861374355 268568609688025e-19 .1 -.02670000
663959425 -.000386156330880547 .1 -.02636241364658715 -.00079315806473934 .1 -.0
258218384249817 -.00123722145963153 .1 -.0250701228256033 -.001662479643996905 .
1 -.024111370696316 -.00204789986867585 .1 -.0229543545251034 -.0023968103771685
55 .1 -.0216015856480598 -.00271567367744814 .1 -.0200594702318706 -.00301522813
3583995 .1 -.01833301790033315 -.003294435616555495 .1 -.01642941883150715 -.003
552045564342075 .1 -.0143561161870959 -.00378141698903537 .1 -.0121217518837481
 -.003978177141702465 .1 -.00973661592136931 -.004144048783516765 .1 -.007210821
84758366 -.004276225223047745 .1 -.00455485139564696 -.004377787611901445 .1 -.0
01779867103316475 -.004445037828794365 .1 .001102018645897998 -.0044833497894486
6 .1 .00407824064560856 -.004486909055843105 .1 .00713606941856132 -.00446142890
17397 .1 .0113392841107323 -.00438963266215999 .1 .01669749908043375 -.004233347
644720115 .1 .02318677203562615 -.003962810111916315 .1 .02967582711636375 -.003
622557630845455 .1 .0360538672328714 -.00323281637053935 .1 .04221168577272625 -
.002810091222363085 .1 .0480443640452926 -.002373833887377725 .1 .05345020047129
51 -.00193697095215897 .1 .0583430080130135 -.00151695214446909 .1 .062620401638
5954 -.001126068100900454 .1 .0662636666873836 -.000771867059653352 .1 .06905974
0399015 -.000470031864208512 .1 .0713354828776836 -.000226868145626765 .1 .07227
2359976454 -682570335048732e-19 .1 .0734154463947309 268568610167849e-19 .1 .072
2723599764539 .0001219707555373618 .1 127 255 75 30 1 1 1 1 1 1 1 1 1 1 1 1 1 1
 1 1 1 1 1 1 1 1 1 1 1 1 1 1 1 1 1 1 1 1 1 1 1 1 1 1 1 1 1 1 1 1 1 1 1 1 1 1 1 1
 1 1 1 1 1 1 1 1 1 1 1 1 1 1 1 1 1 1 1 1 1 128 255 75 31 -.0189444871418498 -.00
84881557087434 -.00213342749536827 0 .00213342749536812 .00848815570874325 .0189
444871418497 .033319113775561 .0513562940971698 .0727560928984786 .0971408174352
605 .1240974887825116 .153162556777752 .1838339176616645 .2155893744591105 .2478
781945770045 .2801508678640745 .311860397032406 .327332942728477 .34246284611951
6 .35718710244681 .3714481183516205 .385183441042633 .3983312725847125 .41084463
71914135 .4226726071673125 .433769314473499 .444090175228778 .453589411782156 .4
62240439844477 .470010037325291 .476870984677 .482833353063501 .487908551351284
 .492155163583175 .495592273393841 .498196358984712 .5 .501803641015288 .5044077
26606159 .507844836416825 .512091448648716 .517166646936499 .523129015323 .52998
9962674709 .537759560155523 .546410588217844 .555909824771222 .566230685526501 .
577327392832688 .589155362808586 .601668727415287 .614816558957367 .628551881648
379 .64281289755319 .657537153880484 .672667057271523 .688139602967594 .71984913
2135926 .752121805422995 .78441062554089 .816166082338336 .846837443222248 .8759
02511217488 .902859182564739 .927243907101521 .94864370590283 .966680886224439 .
98105551285815 .991511844291257 .997866572504632 1 1.002133427495368 1.008488155
708742 1.01894448714185 17 25 0 32 25 25 0 33 18 0 0 +15 255 32 28 0 25 14 0 17
 33 0 34 33 33 0 25 18 0 0 -15 34 19 0 33 35 0 14 255 35 18 36 ?0 37 34 5 16 +0
 0 0 37 21 81 1 36 101 38 35 39 0 0 40 41 14 37 1 40 ?35 14 23 5 42 -0 0 35 14 2
1 50 255 16 24 0 35 42 6 0 +-.0268155913634227 268568609687955e-19 0 0 0 -1 -1 0
 0 13 21 10 0 0 0 0 0 0 8 14 14 14 27 43 ?37 0 44 5 6 -0 0 37 0 21 81 1 43 105 3
8 14 45 0 40 0 46 15 44 26 0 24 14 32 17 24 0 44 24 24 0 22 9 0 0 -80 7 CCCCCDI1
2 legal_owners0 16 1 lCZ1 38 47 48 9000 1 1 1 1 1 1 1 1 0 FFFFTFTFFFFFFFFF1 81 3
 45 104 49 14 50 43 51 0 52 0 0 81 1 40 103 38 37 51 0 36 43 53 82 255 1 46 -171
8091670 81 3 51 102 49 37 54 40 39 45 55 0 0 82 1 53 -1720057750 80 3 49 56 57 9
000 0 0 0 0 3 5 0 0 0 FFFFTFFFFFFFFFFF1 1 1 81 1 54 87 58 37 0 51 50 59 60 81 3
 39 100 49 35 59 36 0 51 61 0 0 82 6 55 0 19215563 31103408 0 0 0 81 1 59 88 58
 35 0 39 54 0 62 82 6 61 0 19215563 31103408 0 0 0 80 1 58 0 63 8001 0 0 0 0 3 5
 0 0 0 FFFFTFTFFFFFFFFF2 83 255 3 62 1 1 1 79 255 15 63 SDL/TYSA_COLOUR81 1 50 8
6 58 14 0 45 0 54 64 83 3 60 1 1 1 83 3 64 1 1 1 79 18 57 DOWNSTREAM_FACE_ID82 6
 52 0 19215563 31103408 0 0 0 79 14 48 SWEntUnchanged50 42 3 0 37 0 16 0 +-.0268
155913634227 268568609687955e-19 .1 0 0 -1 -1 0 0 15 23 4 0 22 37 0 82 1 41 -171
8353814 19 15 32 0 1 0 8 5 0 S0 136 19 3 71 3 75 2 TTF1 65 66 67 135 20 2 0 45 2
13 65 .072272359976454 -682570335048732e-19 0 .0734154463947309 268568610167849e
-19 0 .0722723599764539 .0001219707555373618 0 .0713354828776833 .00028058186765
8345 0 .0690597403990146 .000523745586237919 0 .0662636666873828 .00082558078168
0082 0 .0626204016385943 .001179781822923696 0 .0583430080130119 .00157066586648
824 0 .0534502004712932 .00199068467417343 0 .0480443640452903 .0024275476093870
15 0 .0422116857727235 .00286380494436679 0 .0360538672328683 .00328653009253716
5 0 .0296758271163602 .00367627135283716 0 .0231867720356223 .004016523833901815
 0 .01669749908042965 .0042870613666994 0 .01133928411072806 .004443346384134145
 0 .00713606941855702 .00451514262370983 0 .00407824064560424 .00454062277781031
 0 .001102018645893664 .00453706351141302 0 -.00177986710332078 .004498751550755
96 0 -.00455485139565114 .00443150133386039 0 -.00721082184758776 .0043299389450
04145 0 -.00973661592137333 .004197762505470745 0 -.01212175188375194 .004031890
86365417 0 -.01435611618709956 .00383513071098493 0 -.01642941883151055 .0036057
5928628965 0 -.0183330179003363 .003348149338501245 0 -.0200594702318735 .003068
941855528095 0 -.0216015856480624 .00276938739939077 0 -.0229543545251057 .00245
0524099109885 0 -.024111370696318 .002101613590616065 0 -.0250701228256049 .0017
16193365936225 0 -.02582183842498295 .001290935181570104 0 -.02636241364658795 .
000846871786677417 0 -.02670000663959465 .0004398700528182815 0 -.02686288861374
355 268568609688025e-19 0 -.02670000663959425 -.000386156330880547 0 -.026362413
64658715 -.00079315806473934 0 -.0258218384249817 -.00123722145963153 0 -.025070
1228256033 -.001662479643996905 0 -.024111370696316 -.00204789986867585 0 -.0229
543545251034 -.002396810377168555 0 -.0216015856480598 -.00271567367744814 0 -.0
200594702318706 -.003015228133583995 0 -.01833301790033315 -.003294435616555495
 0 -.01642941883150715 -.003552045564342075 0 -.0143561161870959 -.0037814169890
3537 0 -.0121217518837481 -.003978177141702465 0 -.00973661592136931 -.004144048
783516765 0 -.00721082184758366 -.004276225223047745 0 -.00455485139564696 -.004
377787611901445 0 -.001779867103316475 -.004445037828794365 0 .00110201864589799
8 -.00448334978944866 0 .00407824064560856 -.004486909055843105 0 .0071360694185
6132 -.0044614289017397 0 .0113392841107323 -.00438963266215999 0 .0166974990804
3375 -.004233347644720115 0 .02318677203562615 -.003962810111916315 0 .029675827
11636375 -.003622557630845455 0 .0360538672328714 -.00323281637053935 0 .0422116
8577272625 -.002810091222363085 0 .0480443640452926 -.002373833887377725 0 .0534
502004712951 -.00193697095215897 0 .0583430080130135 -.00151695214446909 0 .0626
204016385954 -.001126068100900454 0 .0662636666873836 -.000771867059653352 0 .06
9059740399015 -.000470031864208512 0 .0713354828776836 -.000226868145626765 0 .0
72272359976454 -682570335048732e-19 0 .0734154463947309 268568610167849e-19 0 .0
722723599764539 .0001219707555373618 0 127 75 66 1 1 1 1 1 1 1 1 1 1 1 1 1 1 1 1
 1 1 1 1 1 1 1 1 1 1 1 1 1 1 1 1 1 1 1 1 1 1 1 1 1 1 1 1 1 1 1 1 1 1 1 1 1 1 1 1
 1 1 1 1 1 1 1 1 1 1 1 1 1 1 1 1 1 1 1 128 75 67 -.0189444871418498 -.0084881557
087434 -.00213342749536827 0 .00213342749536812 .00848815570874325 .018944487141
8497 .033319113775561 .0513562940971698 .0727560928984786 .0971408174352605 .124
0974887825116 .153162556777752 .1838339176616645 .2155893744591105 .247878194577
0045 .2801508678640745 .311860397032406 .327332942728477 .342462846119516 .35718
710244681 .3714481183516205 .385183441042633 .3983312725847125 .4108446371914135
 .4226726071673125 .433769314473499 .444090175228778 .453589411782156 .462240439
844477 .470010037325291 .476870984677 .482833353063501 .487908551351284 .4921551
63583175 .495592273393841 .498196358984712 .5 .501803641015288 .504407726606159
 .507844836416825 .512091448648716 .517166646936499 .523129015323 .5299899626747
09 .537759560155523 .546410588217844 .555909824771222 .566230685526501 .57732739
2832688 .589155362808586 .601668727415287 .614816558957367 .628551881648379 .642
81289755319 .657537153880484 .672667057271523 .688139602967594 .719849132135926
 .752121805422995 .78441062554089 .816166082338336 .846837443222248 .87590251121
7488 .902859182564739 .927243907101521 .94864370590283 .966680886224439 .9810555
1285815 .991511844291257 .997866572504632 1 1.002133427495368 1.008488155708742
 1.01894448714185 74 4 CI16 index_map_offset0 0 1 dCCZ20 13 11 0 0 45 68 69 70 4
3 71 72 73 11 59 2 0 0 0 0 0 0 0 0 0 81 2 68 47 74 1 0 69 0 0 0 75 81 2 69 51 76
 1 68 70 0 0 0 77 81 2 70 52 78 1 69 71 0 0 79 0 81 1 71 56 80 1 70 72 0 0 81 81
 2 72 62 82 1 71 73 0 0 83 0 81 2 73 74 84 1 72 11 0 0 0 85 81 2 11 77 86 1 73 2
 0 0 0 0 80 2 86 87 88 9000 0 0 0 0 3 5 0 0 0 FFTFFFFFFFFFFFFF9 1 79 16 88 BODY_
RECIPE_200180 2 84 89 90 9000 0 0 0 0 3 5 0 0 0 FFTFFFFFFFFFFFFF9 1 82 1 85 1 79
 24 90 BODY_IN_LIGHTWEIGHT_PERM80 2 82 91 92 8004 0 0 0 0 3 5 0 0 0 FFTFFFFFFFFF
FFFF2 3 83 1 83 1 79 16 92 SDL/TYSA_DENSITY80 1 80 93 94 9000 1 1 1 1 1 1 1 1 0
 FFTFFFFFFFFFFFFF1 82 1 81 891256 79 10 94 BODY_MATCH80 2 78 95 96 9000 0 0 0 0
 3 5 0 0 0 FFTFTTTFFTFFFFFF3 3 84 255 13 79 Boss-Extrude179 21 96 SWIMPLICITBODY
NAME_ID80 2 76 97 98 9000 0 0 0 0 3 5 0 0 0 FFTFFFFFFFFFFFFF9 1 82 1 77 35 79 30
 98 LAST_BODY_MODIFYING_FEATURE_ID80 2 74 99 100 9000 0 0 0 0 3 5 0 0 0 FFTFFFFF
FFFFFFFF9 1 82 1 75 103 79 19 100 ENT_TIME_STAMP_200180 2 10 101 102 9000 0 0 0
 0 3 5 0 0 0 FFTFFFFFFFFFFFFF9 1 82 1 12 101 79 12 102 ATOM_ID_20011 0 
